<svg width="432" height="432" viewBox="0 0 432 432" fill="none" xmlns="http://www.w3.org/2000/svg">
<path fill-rule="evenodd" clip-rule="evenodd" d="M385 0C393.284 0 400 6.71573 400 15V258.678C419.683 276.941 432 303.032 432 332C432 387.228 387.229 432 332 432C303.032 432 276.941 419.683 258.678 400H15C6.71576 400 0 393.284 0 385V15C0 6.71574 6.7157 0 15 0H385ZM360 55V235.973C351.115 233.387 341.72 232 332 232V82C332 73.7157 325.284 67 317 67H82C73.7157 67 67 73.7157 67 82V317C67 325.284 73.7157 332 82 332H232C232 341.72 233.387 351.115 235.973 360H55C46.7157 360 40 353.284 40 345V55C40 46.7157 46.7157 40 55 40H345C353.284 40 360 46.7157 360 55ZM296.569 238.458L250.522 198.078L140.765 305.5H235.549C244.017 274.609 266.928 249.691 296.569 238.458ZM305.5 209.049V108.5C305.5 100.216 298.784 93.5 290.5 93.5H108.5C100.216 93.5 93.5 100.216 93.5 108.5V222.229L125.516 183.01L134.376 172.157L145.222 181.024L190.282 217.858L240.208 168.995L249.478 159.922L259.231 168.474L305.5 209.049ZM102.165 304.1L170.147 237.564L138.348 211.569L93.5585 266.435C93.5391 266.459 93.5195 266.482 93.5 266.506V290.5C93.5 296.52 97.0467 301.712 102.165 304.1ZM332 404C370.66 404 402 372.66 402 334C402 295.34 370.66 264 332 264C293.34 264 262 295.34 262 334C262 372.66 293.34 404 332 404ZM347.5 295.997C347.5 288.265 341.232 281.997 333.5 281.997C325.768 281.997 319.5 288.265 319.5 295.997V319.5H295.997C288.265 319.5 281.997 325.768 281.997 333.5C281.997 341.232 288.265 347.5 295.997 347.5H319.5V371.003C319.5 378.735 325.768 385.003 333.5 385.003C341.232 385.003 347.5 378.735 347.5 371.003V347.5H371.003C378.735 347.5 385.003 341.232 385.003 333.5C385.003 325.768 378.735 319.5 371.003 319.5H347.5V295.997Z" fill="black"/>
</svg>
